<?xml version="1.0" standalone="no"?>
<!DOCTYPE svg PUBLIC "-//W3C//DTD SVG 20010904//EN"
 "http://www.w3.org/TR/2001/REC-SVG-20010904/DTD/svg10.dtd">
<svg version="1.0" xmlns="http://www.w3.org/2000/svg"
 width="1779.000000pt" height="1779.000000pt" viewBox="0 0 1779.000000 1779.000000"
 preserveAspectRatio="xMidYMid meet">
<metadata>
Created by potrace 1.11, written by Peter Selinger 2001-2013
</metadata>
<g transform="translate(0.000000,1779.000000) scale(0.100000,-0.100000)"
fill="#000000" stroke="none">
<path d="M9618 17645 c-2 -2 -41 -6 -88 -9 -119 -8 -178 -15 -305 -32 -145
-19 -171 -23 -230 -34 -27 -5 -66 -12 -85 -15 -19 -3 -62 -12 -95 -20 -62 -14
-85 -14 -195 4 -96 15 -128 19 -205 26 -38 4 -83 9 -100 11 -207 24 -768 24
-971 0 -53 -7 -138 -16 -188 -21 -41 -4 -248 -37 -320 -51 -141 -27 -268 -56
-471 -109 -80 -21 -259 -79 -400 -130 -429 -156 -892 -397 -1260 -658 -99 -70
-316 -236 -369 -282 -6 -5 -45 -39 -86 -75 -41 -35 -160 -149 -265 -252 l-190
-189 -145 -73 c-80 -40 -179 -92 -220 -116 -41 -23 -90 -51 -107 -61 -237
-135 -575 -381 -823 -598 -86 -75 -410 -396 -465 -461 -29 -33 -134 -157 -178
-210 -97 -114 -315 -426 -428 -612 -112 -183 -266 -484 -348 -683 -23 -55 -46
-109 -51 -120 -16 -34 -97 -265 -134 -380 -67 -211 -160 -602 -181 -768 -3
-26 -10 -69 -15 -95 -4 -26 -11 -78 -15 -117 -6 -60 -18 -93 -90 -240 -111
-229 -127 -264 -200 -450 -129 -330 -233 -696 -290 -1020 -26 -150 -37 -232
-55 -390 -32 -280 -35 -873 -6 -1100 2 -16 7 -59 11 -95 11 -103 20 -171 30
-220 3 -14 8 -45 11 -70 3 -25 10 -63 14 -85 5 -22 11 -55 15 -72 6 -35 26
-126 51 -233 104 -433 314 -967 531 -1350 11 -19 20 -42 21 -50 2 -45 18 -147
42 -275 10 -55 22 -116 25 -135 4 -19 8 -39 9 -45 1 -5 8 -37 15 -70 17 -78
43 -179 91 -345 244 -847 732 -1669 1366 -2304 437 -437 888 -762 1451 -1045
158 -80 158 -80 288 -208 592 -581 1297 -1016 2076 -1277 115 -38 263 -84 294
-90 11 -3 63 -16 115 -30 149 -40 425 -94 565 -111 28 -4 57 -8 65 -10 8 -2
49 -7 90 -10 41 -4 85 -8 98 -10 176 -28 801 -27 1049 1 43 5 102 11 171 20
80 10 256 38 333 54 26 5 57 7 70 5 61 -13 251 -45 295 -50 27 -4 60 -8 74
-11 14 -2 52 -6 86 -9 33 -3 70 -7 82 -10 139 -26 885 -27 1067 0 17 2 51 7
78 10 26 3 68 8 95 11 68 8 339 53 392 65 25 6 54 13 66 15 108 21 388 99 554
154 841 281 1557 731 2197 1381 116 119 126 127 245 186 129 66 135 69 261
146 43 26 80 47 82 47 11 0 333 222 436 301 242 184 515 435 726 665 98 106
117 128 152 173 14 19 37 46 50 60 27 30 196 255 263 351 300 429 570 992 733
1530 15 47 28 93 30 103 2 10 13 51 25 93 21 79 55 225 65 284 3 19 8 42 10
50 2 8 7 29 10 45 2 17 7 39 9 50 7 37 15 91 35 238 6 41 20 85 36 113 48 82
182 358 235 484 29 69 58 139 65 155 7 17 38 100 68 185 47 131 64 185 83 255
2 6 19 69 38 140 43 154 103 438 120 560 2 11 7 45 11 75 4 30 9 63 10 72 2 9
7 48 10 85 4 37 8 79 10 93 27 186 27 862 0 1050 -2 14 -6 57 -10 95 -4 39 -8
77 -10 85 -2 8 -6 38 -9 65 -4 28 -14 88 -22 135 -8 47 -17 96 -19 110 -3 22
-48 231 -61 283 -2 9 -6 26 -8 37 -12 53 -72 255 -112 378 -74 224 -169 453
-286 692 -61 124 -113 232 -114 240 -1 8 -5 35 -7 60 -32 290 -140 766 -242
1060 -37 108 -105 288 -125 335 -162 373 -272 584 -454 870 -119 188 -352 502
-456 615 -8 9 -42 47 -75 85 -70 81 -289 302 -390 394 -291 265 -668 538 -980
711 -33 18 -75 42 -94 52 -18 10 -92 48 -164 85 l-131 66 -180 182 c-180 181
-327 314 -481 434 -44 34 -87 68 -95 74 -317 249 -780 515 -1195 687 -215 89
-567 210 -683 235 -9 2 -73 17 -142 34 -193 46 -414 88 -570 106 -30 4 -66 8
-80 10 -24 3 -75 9 -205 21 -64 6 -721 14 -727 9z m657 -299 c55 -4 111 -9
125 -11 14 -2 61 -7 105 -11 44 -3 83 -8 86 -10 3 -1 28 -6 55 -9 73 -9 233
-35 284 -47 59 -13 80 -17 110 -23 14 -2 77 -18 140 -34 442 -112 855 -275
1240 -489 265 -147 529 -326 760 -515 77 -64 81 -69 50 -62 -19 4 -53 13 -75
21 -48 15 -258 68 -335 83 -30 6 -66 14 -80 16 -14 3 -40 8 -59 11 -18 3 -43
8 -55 10 -22 5 -252 38 -321 47 -22 3 -74 9 -115 12 -41 4 -93 9 -115 12 -22
3 -207 6 -412 7 -360 1 -372 2 -395 22 -13 11 -35 29 -49 40 -14 10 -81 61
-150 111 -68 51 -129 96 -134 100 -12 9 -126 84 -205 135 -203 131 -538 307
-770 403 -36 15 -78 33 -95 40 -43 20 -219 84 -300 111 -44 14 -61 23 -45 24
62 3 195 12 197 14 6 5 466 -2 558 -8z m-2295 -46 c8 -1 -2 -8 -22 -15 -20 -8
-52 -21 -70 -29 -18 -8 -57 -25 -87 -36 -98 -38 -362 -165 -499 -241 -283
-157 -589 -365 -852 -581 l-96 -79 -309 -4 c-171 -2 -332 -6 -360 -9 -27 -3
-79 -8 -115 -11 -36 -4 -76 -8 -90 -10 -24 -3 -67 -9 -160 -20 -98 -12 -276
-46 -450 -85 -52 -11 -118 -28 -146 -36 -28 -8 -60 -16 -71 -18 -11 -2 -43
-11 -73 -20 -29 -9 -55 -14 -57 -13 -4 5 136 116 267 213 522 388 1150 683
1795 843 88 22 174 43 190 46 35 6 69 13 105 20 104 21 284 47 421 60 35 4 78
8 94 10 17 2 93 7 170 11 77 3 141 7 142 8 2 1 253 -2 273 -4z m860 -95 c311
-64 723 -191 988 -304 120 -51 373 -172 422 -201 8 -5 58 -33 110 -62 52 -29
103 -57 113 -63 49 -28 271 -173 334 -219 l73 -53 -103 -18 c-433 -74 -916
-218 -1287 -383 -166 -73 -487 -239 -588 -303 l-45 -28 -71 40 c-142 80 -515
259 -666 320 -350 139 -807 268 -1115 313 -23 4 -50 8 -61 10 -28 6 -126 19
-141 19 -25 1 -12 22 30 52 350 246 491 332 772 475 223 114 420 197 664 281
160 55 444 137 481 138 8 1 49 -6 90 -14z m3145 -1149 c61 -4 124 -9 140 -11
17 -2 59 -7 95 -10 206 -19 484 -68 695 -121 55 -14 110 -28 123 -30 32 -6
455 -145 467 -154 6 -3 33 -15 60 -25 28 -10 68 -26 90 -35 22 -10 61 -27 87
-38 26 -11 62 -37 80 -58 82 -92 262 -324 339 -436 87 -127 219 -334 219 -344
0 -3 15 -28 33 -57 55 -85 218 -421 284 -583 61 -147 166 -444 160 -450 -1 -2
-54 23 -117 54 -348 175 -736 317 -1123 413 -42 10 -91 21 -109 24 -17 3 -34
7 -37 9 -3 2 -69 15 -146 29 -138 25 -162 29 -260 42 -27 4 -59 8 -71 10 -11
2 -51 6 -88 10 -56 6 -69 11 -76 29 -28 71 -125 272 -193 396 -63 115 -78 143
-138 243 -222 367 -477 693 -796 1018 l-84 85 128 -2 c70 -1 178 -5 238 -8z
m-747 -42 c38 -29 387 -375 457 -454 229 -258 478 -611 650 -920 67 -122 156
-302 151 -307 -2 -3 -114 -6 -248 -8 -134 -2 -268 -6 -298 -9 -30 -3 -86 -8
-125 -11 -68 -6 -111 -10 -185 -20 -19 -3 -55 -7 -80 -10 -25 -3 -72 -11 -105
-16 -33 -6 -71 -13 -85 -15 -14 -3 -47 -9 -75 -14 -27 -6 -59 -11 -70 -13 -46
-8 -228 -52 -325 -79 -58 -16 -112 -31 -120 -33 -15 -3 -205 -64 -227 -72 -6
-2 -46 42 -89 99 -43 57 -80 105 -83 108 -4 3 -33 38 -65 79 -270 338 -660
703 -1054 986 l-123 88 63 37 c65 37 284 146 393 195 304 137 734 274 1050
335 28 6 61 12 75 15 56 11 188 33 245 41 28 4 73 10 100 13 115 15 135 13
173 -15z m-5203 4 c2 -2 -27 -35 -64 -73 -240 -247 -445 -513 -683 -885 -101
-157 -273 -488 -358 -685 -24 -55 -46 -103 -49 -107 -3 -4 -28 -10 -56 -13
-27 -4 -61 -8 -75 -10 -14 -3 -72 -11 -130 -20 -58 -8 -150 -25 -205 -36 -55
-12 -111 -23 -124 -26 -58 -10 -345 -87 -446 -119 -118 -37 -355 -122 -420
-150 -22 -10 -42 -18 -45 -19 -5 -1 -40 -16 -144 -62 -34 -15 -122 -57 -196
-94 -74 -37 -136 -67 -136 -66 -3 3 76 241 90 272 8 17 17 41 21 55 28 93 210
486 301 650 157 283 386 617 574 834 102 119 81 105 295 193 222 91 696 235
853 259 20 3 69 12 107 21 39 8 86 16 105 19 19 2 44 6 55 8 11 3 43 8 71 11
28 3 61 7 73 10 12 2 57 7 99 11 42 3 86 8 97 10 11 2 90 7 175 10 85 4 156 8
158 9 4 3 53 -3 57 -7z m625 -23 c8 -2 44 -6 80 -10 36 -4 72 -8 80 -10 8 -1
35 -6 60 -10 90 -14 107 -16 210 -36 417 -80 851 -226 1266 -428 111 -54 204
-103 207 -108 4 -5 -28 -34 -69 -63 -90 -62 -308 -235 -408 -322 -91 -79 -422
-411 -503 -503 -124 -142 -311 -380 -365 -466 l-17 -27 -113 35 c-174 53 -397
110 -593 149 -11 2 -31 6 -45 9 -14 2 -41 7 -60 10 -19 3 -60 10 -90 15 -117
20 -394 47 -555 55 -93 5 -400 6 -490 3 -22 -1 -38 2 -36 7 2 6 7 20 12 32 11
30 145 298 177 353 70 123 163 276 225 370 71 106 250 350 298 405 14 17 69
79 120 140 52 60 164 179 249 263 l155 154 95 -7 c52 -4 101 -8 110 -10z
m7895 -809 c78 -51 311 -221 325 -236 3 -3 59 -50 125 -105 146 -120 448 -420
577 -571 490 -575 842 -1225 1049 -1937 27 -94 49 -175 49 -180 0 -5 -25 24
-57 64 -133 174 -258 314 -458 515 -259 259 -522 475 -820 674 -60 40 -112 75
-114 76 -4 3 -28 91 -37 130 -18 90 -131 428 -204 610 -97 243 -277 609 -351
716 -11 14 -19 29 -19 33 0 7 -24 45 -127 204 -30 46 -49 80 -41 75 7 -4 54
-35 103 -68z m-5587 -38 c436 -291 830 -655 1165 -1076 60 -75 111 -140 113
-144 3 -5 -16 -17 -43 -29 -428 -181 -896 -456 -1238 -729 -101 -80 -76 -83
-221 26 -174 130 -390 274 -544 362 -19 11 -69 39 -110 62 -72 42 -432 220
-444 220 -3 0 -29 11 -58 24 -29 13 -63 27 -75 31 -13 3 -23 10 -23 14 0 12
130 180 243 316 183 218 422 457 642 640 127 107 459 353 478 354 4 1 56 -31
115 -71z m-5701 -30 c-103 -157 -124 -193 -206 -340 -115 -207 -208 -405 -306
-653 -66 -168 -146 -408 -192 -585 l-28 -105 -111 -75 c-428 -289 -851 -674
-1164 -1060 -25 -30 -50 -60 -56 -67 -7 -7 -33 -42 -60 -78 -26 -35 -49 -63
-51 -61 -15 15 154 548 212 673 8 17 15 37 15 45 0 8 4 18 8 24 5 5 24 45 42
89 47 113 214 439 295 575 294 497 691 960 1151 1342 152 126 493 373 502 363
2 -2 -21 -41 -51 -87z m9368 -1099 c11 -12 115 -318 155 -459 46 -159 97 -375
116 -490 2 -14 7 -41 10 -60 25 -144 39 -256 49 -375 4 -44 8 -91 11 -105 2
-14 6 -112 10 -219 l6 -194 -24 6 c-120 29 -265 59 -348 73 -14 3 -47 9 -75
14 -27 5 -72 12 -100 16 -27 3 -59 8 -70 10 -10 2 -47 6 -81 10 -33 3 -74 7
-90 9 -16 2 -69 7 -119 10 -49 4 -106 9 -125 11 -44 4 -561 6 -580 2 -10 -2
-20 16 -32 57 -152 499 -312 879 -525 1245 -27 47 -56 96 -64 110 -7 14 -22
36 -31 49 -25 33 -23 37 20 49 20 5 93 26 162 46 121 35 339 88 410 100 19 3
46 8 60 11 14 3 39 7 55 10 17 3 41 8 55 10 14 3 43 7 65 10 21 2 73 9 115 14
238 32 340 37 662 37 163 -1 299 -4 303 -7z m-6795 -33 c96 -8 169 -15 225
-22 56 -7 336 -51 375 -59 14 -3 39 -8 55 -11 87 -15 336 -77 420 -103 33 -11
73 -22 88 -25 l29 -7 -23 -37 c-255 -430 -431 -830 -565 -1287 -38 -127 -42
-143 -43 -162 -1 -9 -62 -11 -238 -11 -294 1 -432 -7 -768 -47 -22 -3 -65 -10
-95 -15 -30 -5 -73 -12 -95 -16 -39 -5 -261 -50 -300 -60 -11 -3 -38 -9 -60
-14 -22 -5 -49 -12 -59 -16 -18 -7 -19 0 -12 227 3 129 8 248 10 264 2 17 7
66 11 110 3 44 8 91 10 105 2 14 7 49 10 79 4 30 8 61 10 70 1 9 6 39 9 66 4
28 9 57 11 65 2 8 7 29 9 45 8 45 43 214 57 271 43 182 164 574 180 584 5 3
46 7 91 9 46 1 84 4 86 6 5 5 498 -3 572 -9z m7205 -5 c33 -6 78 -12 100 -16
321 -46 837 -193 1130 -320 17 -7 64 -27 105 -45 68 -29 368 -177 430 -212 92
-51 140 -81 148 -91 10 -12 40 -161 66 -327 15 -97 21 -140 31 -245 3 -33 8
-76 10 -95 9 -73 18 -280 18 -405 0 -134 -11 -421 -18 -455 -2 -11 -6 -55 -10
-98 -3 -42 -7 -88 -10 -102 -2 -14 -7 -45 -10 -70 -3 -25 -8 -56 -10 -70 -3
-14 -7 -38 -9 -55 -4 -30 -19 -115 -21 -125 -1 -3 -5 -24 -9 -47 -9 -48 -19
-53 -52 -22 -72 68 -432 303 -644 421 -103 57 -423 218 -435 218 -2 0 -28 11
-57 24 -75 34 -264 107 -393 152 -60 20 -113 41 -116 46 -3 4 -6 72 -7 151 -3
193 -15 422 -27 497 -2 14 -7 52 -10 85 -8 75 -15 133 -20 165 -2 14 -9 54
-14 90 -6 36 -13 76 -16 90 -3 14 -7 36 -10 50 -2 14 -9 45 -14 70 -5 25 -14
68 -20 96 -21 104 -84 334 -136 492 -31 96 -48 162 -41 162 6 0 38 -4 71 -9z
m-8288 -50 c-3 -9 -21 -68 -40 -131 -63 -206 -135 -497 -151 -611 -3 -19 -8
-45 -11 -59 -3 -14 -8 -45 -10 -70 -3 -25 -7 -52 -10 -60 -2 -8 -7 -39 -10
-69 -4 -30 -8 -61 -10 -70 -1 -9 -6 -48 -10 -88 -4 -40 -8 -85 -10 -100 -8
-64 -18 -340 -19 -498 l-1 -170 -131 -46 c-541 -190 -1040 -456 -1489 -795
-79 -60 -79 -59 -91 34 -3 25 -7 48 -9 52 -2 3 -6 26 -10 50 -3 25 -11 74 -16
110 -11 67 -12 77 -23 195 -4 39 -9 84 -11 101 -16 122 -22 496 -11 714 7 139
31 371 51 500 9 57 36 209 48 265 l12 59 79 49 c128 79 389 211 571 287 217
91 272 114 285 115 3 1 69 22 146 48 186 61 452 130 626 163 90 16 235 40 246
40 8 1 11 -6 9 -15z m5745 -391 c147 -237 277 -496 389 -777 44 -109 180 -505
176 -510 -1 0 -27 -4 -57 -7 -30 -4 -66 -9 -80 -11 -14 -2 -45 -7 -70 -10 -62
-8 -317 -54 -360 -65 -19 -5 -48 -11 -65 -14 -16 -3 -57 -13 -90 -22 -33 -8
-68 -17 -77 -19 -35 -7 -176 -48 -266 -77 -52 -16 -95 -28 -96 -26 -2 2 -38
50 -81 108 -43 58 -81 107 -84 110 -4 3 -33 39 -66 80 -32 41 -62 77 -65 80
-3 3 -42 46 -85 95 -43 50 -157 167 -252 261 l-174 170 26 14 c14 7 25 17 25
22 0 4 6 8 14 8 8 0 16 4 18 10 5 15 269 200 415 291 168 105 252 151 438 244
235 116 378 175 391 162 6 -7 40 -59 76 -117z m-3062 65 c239 -97 513 -238
753 -387 117 -73 404 -272 436 -303 11 -11 -15 -41 -155 -182 -139 -139 -273
-285 -373 -408 -89 -109 -153 -193 -198 -257 -30 -43 -55 -78 -56 -78 -1 0
-24 7 -52 16 -370 114 -711 188 -1010 219 -102 11 -97 -1 -54 145 64 213 150
446 223 604 20 43 36 80 36 82 0 7 114 234 152 303 70 128 170 291 179 291 6
0 59 -20 119 -45z m7993 -622 c452 -344 893 -815 1191 -1273 164 -251 185
-294 191 -383 3 -39 8 -94 11 -122 3 -27 5 -158 5 -290 0 -219 -3 -319 -16
-445 -3 -25 -7 -74 -10 -110 -6 -64 -12 -112 -20 -160 -3 -14 -7 -47 -11 -75
-3 -27 -8 -59 -10 -70 -2 -11 -7 -33 -10 -50 -48 -270 -189 -797 -206 -769 -3
5 -34 63 -69 129 -203 389 -510 827 -798 1140 -80 86 -324 328 -387 383 l-61
52 28 133 c24 109 50 263 74 432 12 87 24 217 32 355 10 155 10 536 0 690 -12
180 -17 223 -53 483 -3 20 -3 37 -1 37 3 0 56 -39 120 -87z m-12988 -15 c-3
-24 -8 -54 -10 -68 -17 -97 -31 -247 -42 -425 -13 -215 -6 -724 11 -825 3 -14
7 -56 11 -95 3 -38 8 -83 10 -100 3 -16 7 -48 10 -70 5 -41 11 -77 20 -130 3
-16 8 -46 11 -65 3 -19 7 -42 9 -50 3 -8 7 -31 10 -50 3 -19 14 -72 24 -117
l17 -82 -35 -29 c-43 -36 -286 -275 -357 -352 -45 -49 -208 -238 -259 -301
-196 -242 -447 -631 -600 -933 l-50 -98 -38 118 c-54 164 -124 440 -153 594
-3 14 -9 50 -15 80 -11 58 -12 62 -24 150 -4 30 -9 63 -10 72 -2 9 -7 48 -10
85 -4 37 -8 79 -11 93 -19 117 -26 640 -11 853 8 120 14 134 124 312 290 470
649 886 1083 1255 85 72 274 219 283 220 4 0 5 -19 2 -42z m6523 -343 c194
-181 374 -375 530 -570 57 -71 108 -137 112 -146 8 -13 -3 -21 -58 -45 -186
-78 -377 -171 -551 -268 l-124 -69 -76 42 c-117 64 -486 244 -578 281 -46 19
-83 37 -83 40 0 9 183 245 247 318 115 132 156 176 316 335 148 147 171 166
185 155 9 -7 45 -40 80 -73z m3037 -649 c28 -2 88 -7 134 -11 47 -4 92 -8 100
-10 9 -1 43 -6 76 -9 33 -4 67 -9 75 -11 8 -2 33 -6 55 -10 35 -5 69 -10 180
-30 59 -10 336 -75 345 -80 6 -3 8 -20 5 -38 -2 -18 -7 -68 -10 -112 -3 -44
-8 -93 -10 -110 -3 -16 -7 -50 -10 -75 -4 -39 -45 -291 -60 -375 -27 -147
-155 -601 -199 -706 l-15 -37 -223 112 c-123 61 -302 142 -398 180 -96 37
-182 71 -190 75 -8 4 -81 29 -162 56 l-148 48 -1 41 c-4 174 -16 419 -24 484
-2 15 -6 56 -10 92 -3 36 -15 126 -26 200 -25 172 -25 171 -42 257 -10 51 -11
74 -3 76 15 5 498 0 561 -7z m-5685 -11 c3 -2 -4 -62 -16 -134 -13 -71 -26
-156 -30 -188 -3 -32 -8 -67 -10 -78 -2 -11 -7 -54 -10 -95 -3 -41 -7 -86 -10
-100 -6 -40 -15 -244 -18 -403 -2 -81 -5 -149 -7 -150 -2 -2 -62 -23 -134 -47
-71 -24 -134 -46 -140 -50 -5 -4 -39 -17 -75 -29 -36 -12 -83 -31 -105 -40
-22 -10 -85 -38 -140 -61 -93 -40 -331 -159 -452 -226 -29 -15 -55 -26 -58
-22 -11 11 -125 354 -160 483 -34 125 -80 318 -91 380 -2 17 -10 57 -16 90 -6
33 -12 74 -14 90 -2 17 -6 39 -8 50 -8 32 -22 146 -31 250 -4 39 -8 76 -10 83
-4 11 26 29 65 37 8 2 62 14 120 28 88 21 153 35 300 62 8 1 35 6 60 10 25 4
52 9 60 10 16 3 102 14 160 20 19 2 55 6 80 9 25 3 83 8 130 11 47 4 86 8 87
9 4 4 467 5 473 1z m4833 -87 c9 -46 19 -99 22 -118 3 -19 7 -46 10 -60 12
-63 21 -129 30 -205 4 -33 8 -73 10 -90 14 -117 23 -260 26 -400 1 -71 -1 -90
-12 -89 -8 1 -70 13 -139 28 -124 25 -149 30 -224 41 -21 4 -46 8 -55 10 -9 1
-41 6 -71 10 -30 3 -66 8 -80 10 -30 4 -156 17 -185 19 -16 1 -44 48 -131 221
-102 204 -227 428 -261 467 -8 9 -11 18 -6 21 27 16 312 93 468 127 131 28
116 25 230 44 55 10 111 19 125 22 14 2 54 7 90 10 36 4 67 8 69 10 2 2 19 4
36 4 l32 0 16 -82z m-4418 58 c131 -17 136 -18 275 -41 52 -8 136 -24 185 -35
50 -11 99 -22 110 -24 46 -9 367 -97 374 -102 2 -2 -3 -12 -11 -21 -13 -16
-49 -77 -127 -216 -38 -68 -188 -371 -207 -419 -15 -39 -24 -48 -44 -49 -14 0
-32 -2 -40 -3 -8 -2 -42 -6 -75 -10 -74 -8 -100 -12 -245 -36 -149 -25 -155
-26 -287 -55 -62 -14 -115 -25 -119 -25 -13 0 10 446 32 615 2 22 7 58 10 80
7 51 9 65 34 215 12 68 26 127 31 131 11 6 18 6 104 -5z m6875 -336 c106 -43
459 -213 560 -271 189 -107 371 -227 582 -383 103 -76 137 -107 137 -123 2
-54 -150 -492 -240 -693 -137 -307 -307 -610 -479 -858 l-58 -83 -48 53 c-87
95 -397 402 -474 469 -180 157 -417 337 -583 444 -52 33 -76 55 -73 65 2 8 29
87 59 175 46 134 127 407 142 480 2 11 16 76 30 145 30 142 28 132 55 304 11
71 24 177 30 235 6 58 13 120 15 137 l5 31 118 -42 c64 -23 164 -61 222 -85z
m-9110 78 c1 -25 5 -58 21 -183 12 -97 18 -132 25 -167 3 -15 7 -39 9 -55 9
-67 50 -266 86 -413 39 -157 129 -442 190 -598 16 -40 29 -76 29 -80 0 -4 -17
-18 -38 -32 -75 -50 -207 -144 -220 -157 -7 -7 -17 -13 -20 -13 -4 0 -18 -10
-32 -22 -14 -13 -43 -36 -65 -52 -34 -26 -197 -160 -231 -191 -6 -5 -44 -39
-84 -75 -91 -81 -305 -295 -386 -386 -119 -135 -124 -139 -131 -129 -43 58
-236 357 -293 455 -83 143 -239 460 -295 600 -20 52 -43 109 -50 125 -37 89
-155 454 -155 479 0 11 -7 5 168 138 412 313 836 546 1332 734 63 23 121 43
128 43 6 1 12 -9 12 -21z m5370 -153 c121 -199 256 -453 245 -463 -3 -4 -66
-7 -138 -8 -73 -1 -194 -4 -270 -8 -107 -6 -140 -4 -151 6 -34 32 -142 114
-284 216 l-113 81 203 100 c200 99 414 192 432 188 5 -2 39 -52 76 -112z
m-1769 54 c163 -67 458 -207 482 -229 4 -4 -38 -40 -95 -80 -57 -41 -147 -109
-201 -151 -97 -77 -99 -78 -145 -73 -26 3 -146 7 -267 8 -184 2 -219 5 -217
17 12 56 292 559 311 559 5 0 64 -23 132 -51z m862 -456 c38 -24 95 -63 128
-87 69 -50 74 -45 -74 -72 -83 -15 -108 -16 -160 -5 -95 18 -109 21 -157 27
-88 12 -87 13 48 105 70 48 132 84 137 81 6 -3 41 -25 78 -49z m-1186 -460
c-51 -53 -105 -109 -122 -125 -29 -28 -253 -153 -261 -145 -4 4 86 275 107
322 7 17 17 32 20 35 4 3 69 7 145 8 77 2 140 5 141 6 2 1 16 1 32 -2 30 -4
30 -4 -62 -99z m2494 57 c13 -27 80 -214 104 -286 2 -6 -63 22 -144 63 -138
69 -151 78 -241 169 l-95 95 180 -3 180 -3 16 -35z m419 -5 c30 -3 80 -10 110
-15 30 -5 71 -12 90 -15 104 -17 337 -68 348 -77 7 -6 10 -18 8 -27 -3 -9 -8
-59 -11 -112 -6 -99 -12 -167 -20 -231 -13 -101 -16 -125 -20 -148 -2 -14 -9
-56 -15 -95 -6 -38 -13 -71 -15 -74 -3 -2 -41 24 -85 57 -44 33 -136 98 -205
144 l-125 83 -20 70 c-11 39 -48 156 -83 261 l-62 191 25 -3 c14 -1 50 -5 80
-9z m-3545 -124 c-24 -70 -62 -195 -84 -277 -27 -99 -47 -154 -60 -164 -11 -8
-59 -42 -107 -75 -48 -33 -92 -65 -98 -70 -6 -6 -36 -28 -66 -50 -30 -22 -66
-50 -80 -62 l-25 -23 -7 25 c-3 14 -9 40 -12 58 -2 18 -10 61 -16 97 -14 80
-17 101 -25 170 -4 30 -9 62 -10 71 -7 34 -19 187 -19 243 l-1 60 70 18 c39
10 86 21 105 24 19 3 38 8 41 10 4 2 24 6 45 9 22 4 47 8 56 11 19 6 36 9 98
19 25 4 54 9 65 11 11 2 40 7 65 10 25 3 46 7 47 8 1 1 15 3 32 4 l29 2 -43
-129z m10003 97 c6 -18 31 -94 57 -168 96 -279 186 -657 221 -927 2 -20 6 -48
8 -62 3 -14 8 -57 12 -96 3 -38 8 -81 10 -95 23 -172 23 -775 0 -935 -3 -16
-7 -55 -10 -85 -5 -50 -25 -201 -41 -305 -5 -33 -26 -136 -49 -251 -28 -134
-90 -354 -145 -519 -45 -136 -97 -274 -105 -283 -3 -3 -6 21 -7 54 -1 120 -9
238 -24 379 -3 22 -7 63 -10 90 -6 62 -15 132 -21 165 -3 14 -13 75 -24 135
-52 304 -143 639 -248 921 l-49 132 24 63 c33 87 152 428 152 434 -1 3 8 36
20 73 27 89 71 270 106 433 2 9 6 33 9 53 3 19 12 73 20 118 8 46 17 101 20
123 14 102 16 124 21 175 3 31 7 71 10 89 5 46 18 228 19 279 0 50 9 54 24 10z
m-16493 -124 c10 -167 20 -274 51 -509 15 -113 74 -394 129 -615 27 -108 111
-362 173 -520 24 -63 44 -122 44 -130 1 -8 -14 -53 -31 -100 -109 -289 -201
-631 -255 -950 -3 -19 -8 -44 -10 -55 -2 -11 -7 -42 -10 -70 -4 -27 -9 -61
-11 -75 -2 -14 -6 -45 -9 -70 -3 -25 -7 -67 -11 -95 -10 -85 -14 -134 -21
-295 -3 -85 -7 -156 -9 -158 -4 -4 -101 266 -138 388 -33 105 -100 356 -111
412 -2 13 -11 57 -19 98 -18 83 -26 130 -33 175 -2 17 -6 39 -8 51 -2 12 -7
45 -11 74 -4 29 -8 60 -10 69 -1 9 -6 50 -10 91 -4 41 -9 82 -10 91 -9 46 -18
288 -18 464 0 219 10 424 28 567 3 29 8 71 11 93 2 22 7 51 9 65 3 14 7 43 10
65 2 22 7 51 10 65 3 14 7 39 10 55 13 97 76 363 126 540 26 91 122 375 126
371 2 -1 5 -43 8 -92z m8490 26 c200 -54 365 -108 543 -176 168 -64 230 -94
252 -121 9 -10 38 -43 64 -73 86 -98 95 -108 193 -234 95 -120 177 -232 198
-267 6 -9 31 -48 56 -85 105 -159 147 -238 153 -289 22 -183 28 -631 13 -858
-9 -134 -5 -124 -141 -342 -102 -164 -232 -346 -353 -498 -140 -174 -178 -210
-253 -242 -36 -15 -78 -32 -95 -39 -16 -7 -55 -22 -85 -34 -30 -11 -84 -31
-120 -45 -106 -40 -385 -124 -499 -151 -62 -15 -69 -14 -205 14 -265 55 -563
145 -818 246 -247 98 -229 85 -374 264 -205 253 -475 659 -489 735 -18 103
-26 586 -12 810 11 186 18 214 72 302 140 226 290 434 454 632 101 120 106
124 190 163 217 101 562 224 836 297 182 49 209 48 420 -9z m6155 -120 c454
-456 804 -964 1065 -1549 l37 -84 -106 -211 c-216 -432 -442 -771 -738 -1110
-102 -116 -317 -336 -329 -336 -5 0 -9 6 -9 14 0 23 -111 349 -139 411 -6 11
-37 85 -71 165 -148 347 -376 746 -605 1055 -44 61 -84 116 -88 122 -5 8 8 34
31 66 33 45 179 264 241 362 97 154 258 467 350 683 34 78 61 145 61 148 0 3
6 20 14 37 16 36 95 258 101 287 1 3 7 24 15 48 l13 42 26 -22 c14 -13 73 -70
131 -128z m-12630 -70 c47 -141 110 -308 145 -385 136 -303 227 -482 354 -688
36 -59 71 -115 76 -125 29 -50 151 -224 206 -295 l21 -28 -40 -57 c-354 -493
-611 -997 -790 -1547 -31 -96 -59 -175 -63 -175 -3 0 -73 69 -155 153 -302
308 -544 622 -759 982 -84 140 -227 415 -264 506 l-23 56 32 74 c82 189 209
432 323 619 156 256 341 506 550 744 100 114 321 336 327 328 4 -4 31 -77 60
-162z m9017 81 c193 -68 373 -142 548 -226 116 -55 303 -154 322 -170 3 -2 -4
-16 -94 -203 -63 -130 -161 -308 -241 -437 -82 -133 -214 -325 -222 -325 -4 0
-29 26 -56 57 -108 126 -315 338 -450 461 l-70 64 22 116 c13 65 25 135 29
157 3 22 7 51 10 65 3 14 7 45 10 70 3 25 7 59 10 75 6 37 13 101 21 202 13
158 11 143 18 143 3 0 67 -22 143 -49z m-5443 -36 c18 -172 17 -170 31 -270 2
-16 7 -52 10 -80 4 -27 11 -68 15 -90 5 -22 12 -62 16 -90 3 -27 8 -53 10 -56
2 -3 6 -21 9 -40 8 -43 24 -119 31 -140 3 -11 -15 -35 -52 -70 -104 -98 -248
-243 -326 -329 -42 -47 -94 -105 -117 -130 -22 -25 -41 -48 -41 -52 -1 -23
-25 2 -88 90 -91 126 -204 301 -277 427 -62 107 -225 423 -225 436 0 13 111
76 309 175 104 52 192 94 196 94 3 0 30 11 58 24 29 13 102 43 162 66 61 23
119 46 130 51 24 10 139 47 142 45 1 -1 4 -28 7 -61z m6801 -679 c257 -186
513 -415 750 -670 145 -156 140 -141 70 -223 -187 -216 -375 -407 -555 -563
-41 -36 -77 -67 -80 -70 -35 -37 -422 -325 -447 -332 -6 -2 -49 70 -96 162
-136 266 -293 523 -453 743 l-44 61 25 30 c52 65 256 377 334 511 45 77 123
224 174 326 l92 186 80 -55 c44 -30 112 -78 150 -106z m-7795 -368 c98 -161
198 -310 310 -461 l69 -92 -37 -50 c-92 -127 -282 -417 -282 -430 0 -2 -23
-43 -51 -92 -52 -89 -201 -382 -219 -429 -10 -25 -10 -25 -40 -7 -110 65 -432
312 -595 458 -178 158 -506 500 -547 570 -13 21 115 169 337 390 231 230 478
435 733 608 l53 36 88 -174 c49 -95 131 -242 181 -327z m5815 218 c29 -24 30
-24 17 -72 -35 -137 -76 -264 -83 -264 -5 0 -9 4 -9 10 0 5 -24 54 -54 107
-51 94 -54 104 -70 228 -10 72 -20 139 -23 149 -5 17 94 -53 222 -158z m-4145
11 c-15 -105 -21 -120 -78 -227 -58 -109 -61 -113 -71 -88 -10 27 -71 232 -71
240 0 7 225 188 234 188 1 0 -6 -51 -14 -113z m4798 -639 c50 -58 92 -110 92
-114 0 -8 -60 -83 -112 -139 -20 -22 -46 -51 -58 -65 -34 -41 -273 -280 -279
-280 -3 0 -16 35 -29 78 -13 42 -53 155 -88 251 l-65 173 37 102 c32 88 91
262 98 291 1 6 9 29 16 53 l13 43 141 -143 c78 -79 183 -191 234 -250z m-5204
162 c31 -91 63 -185 73 -210 16 -45 16 -46 -12 -115 -16 -39 -54 -146 -86
-238 -31 -92 -60 -168 -64 -168 -19 -2 -415 409 -415 430 0 26 429 487 441
473 4 -4 32 -81 63 -172z m7697 -563 c316 -446 556 -929 718 -1442 63 -201 64
-184 -10 -245 -170 -141 -466 -345 -684 -470 -247 -142 -589 -300 -848 -391
-124 -44 -124 -44 -124 -26 0 26 -14 198 -18 219 -2 13 -7 46 -10 73 -6 54
-24 175 -31 215 -3 14 -11 61 -19 105 -47 256 -172 696 -268 940 l-23 60 140
97 c154 106 376 280 508 397 113 101 406 398 498 504 41 48 77 87 80 87 3 -1
44 -56 91 -123z m-10466 -42 c96 -114 405 -420 550 -545 136 -116 373 -296
515 -391 52 -34 97 -64 99 -65 2 -2 -13 -49 -34 -106 -71 -200 -176 -570 -200
-706 -3 -18 -12 -63 -19 -100 -8 -37 -17 -85 -20 -107 -3 -22 -8 -51 -11 -65
-5 -28 -9 -59 -24 -175 -19 -148 -29 -247 -30 -318 -1 -33 17 -37 -198 39
-462 163 -929 412 -1328 708 -106 78 -129 96 -187 147 l-26 24 54 179 c152
499 372 969 647 1381 82 123 127 185 135 184 4 0 39 -38 77 -84z m8379 -98
c151 -230 282 -462 378 -669 l17 -37 -77 -44 c-210 -121 -512 -260 -773 -356
-102 -37 -106 -37 -107 -8 0 39 -32 285 -47 367 -3 14 -7 41 -10 60 -5 31 -14
79 -29 160 -3 14 -11 53 -19 88 -7 34 -10 62 -5 62 12 0 412 403 483 486 33
39 64 69 68 67 4 -3 59 -82 121 -176z m-6101 -50 c111 -112 228 -227 261 -255
l59 -51 -22 -103 c-12 -57 -24 -114 -26 -128 -10 -49 -46 -271 -51 -312 -2
-24 -6 -59 -9 -78 -7 -59 -18 -184 -19 -202 0 -10 -3 -18 -7 -18 -9 0 -207 68
-234 80 -11 5 -81 34 -155 65 -134 56 -403 187 -492 239 l-47 27 16 37 c26 63
129 272 180 367 97 179 323 535 339 535 3 0 96 -91 207 -203z m815 0 c44 -85
61 -128 66 -173 8 -62 11 -87 25 -171 9 -61 17 -63 -104 28 -159 120 -149 108
-135 159 13 52 83 270 86 270 1 0 29 -51 62 -113z m4226 -70 c25 -81 46 -151
46 -155 0 -4 -32 -32 -71 -62 -39 -30 -76 -59 -83 -65 -14 -13 -78 -59 -92
-68 -7 -4 -10 2 -8 16 2 12 8 51 13 87 6 36 13 92 16 125 4 46 19 87 63 176
31 63 60 110 64 104 3 -5 27 -77 52 -158z m5514 38 c30 -97 100 -359 105 -392
3 -16 9 -46 15 -68 14 -50 69 -388 77 -475 4 -36 8 -72 10 -81 19 -99 27 -696
12 -893 -11 -144 -15 -163 -49 -220 -33 -53 -187 -293 -201 -311 -4 -5 -53
-71 -110 -147 -144 -193 -298 -369 -472 -543 -164 -164 -182 -180 -330 -305
-141 -119 -257 -207 -243 -184 3 5 9 32 12 59 4 28 9 68 12 90 2 22 7 51 9 65
2 14 7 61 11 105 3 44 8 93 10 110 6 55 16 319 16 435 0 185 -21 542 -37 630
-1 8 -6 44 -10 80 -4 36 -9 74 -11 85 -2 10 -6 35 -9 55 -3 20 -8 47 -10 60
-3 14 -8 45 -11 70 -3 25 -8 48 -10 51 -2 4 -6 24 -10 45 -3 22 -10 57 -16 79
-22 87 -32 72 160 263 205 204 243 244 373 402 247 298 458 614 639 958 18 34
36 59 40 55 4 -4 16 -39 28 -78z m-15205 -215 c88 -154 167 -277 286 -445 213
-300 492 -614 786 -884 l58 -53 -22 -117 c-29 -146 -27 -137 -35 -196 -4 -27
-10 -66 -12 -85 -3 -19 -7 -46 -10 -60 -2 -14 -6 -54 -9 -90 -3 -36 -8 -76
-10 -90 -26 -145 -26 -888 -1 -1050 3 -14 7 -54 11 -90 3 -36 8 -78 10 -95 2
-16 6 -49 9 -73 3 -24 7 -46 10 -50 2 -4 6 -31 10 -60 l6 -53 -27 18 c-41 25
-195 146 -303 238 -215 182 -461 432 -636 645 -16 19 -31 37 -34 40 -21 20
-203 270 -277 380 -129 194 -171 270 -177 315 -28 234 -29 721 -1 1015 5 61
15 150 20 180 2 14 7 45 10 70 22 165 87 472 135 635 12 39 23 79 25 89 3 11
12 42 21 69 l16 50 40 -74 c23 -41 68 -121 101 -179z m5338 -355 c55 -41 147
-105 204 -143 l104 -67 17 -70 c20 -85 86 -304 119 -401 26 -72 31 -99 18 -91
-5 3 -30 8 -58 12 -48 6 -244 39 -295 50 -14 2 -38 7 -55 11 -109 21 -251 59
-257 68 -4 6 -5 20 -3 31 2 11 7 54 9 95 5 71 31 276 41 330 3 13 7 42 11 65
3 22 12 71 20 108 8 38 14 70 14 73 0 10 15 0 111 -71z m4479 42 c0 -2 9 -53
20 -114 11 -61 22 -128 25 -149 17 -121 25 -187 31 -254 3 -41 8 -78 10 -81 2
-4 -2 -11 -9 -17 -27 -22 -415 -105 -594 -127 l-42 -5 20 58 c27 78 109 367
109 385 0 8 42 42 93 75 109 72 156 105 251 177 63 49 86 62 86 52z m1509
-543 c71 -199 159 -524 187 -684 3 -14 13 -72 23 -130 21 -114 27 -156 36
-240 4 -30 8 -66 11 -80 2 -14 7 -63 10 -110 3 -47 7 -95 9 -107 2 -13 0 -25
-6 -28 -19 -13 -323 -77 -464 -99 -16 -2 -50 -8 -75 -11 -25 -4 -52 -9 -60
-10 -8 -1 -44 -6 -80 -10 -36 -3 -76 -8 -90 -10 -29 -4 -153 -14 -260 -21
-115 -7 -436 -7 -447 -1 -7 4 -6 27 3 64 7 32 15 78 18 103 4 25 8 56 10 70 7
39 14 90 21 145 3 28 8 66 11 85 2 19 7 64 9 100 3 36 7 94 10 130 3 36 8 175
10 310 l3 244 29 9 c276 88 661 257 958 420 l60 33 11 -26 c6 -15 30 -80 53
-146z m-7294 -31 c238 -118 641 -283 752 -307 18 -4 35 -11 38 -16 3 -5 8
-111 10 -237 3 -125 7 -244 10 -263 2 -19 7 -73 10 -120 4 -47 9 -92 10 -100
1 -8 6 -40 10 -70 9 -75 12 -98 20 -148 4 -23 8 -52 10 -65 4 -24 18 -104 33
-179 l9 -48 -286 5 c-157 2 -299 6 -316 8 -16 3 -66 7 -110 11 -44 4 -91 9
-105 11 -14 3 -45 6 -70 9 -64 6 -354 56 -425 73 -36 8 -31 7 -75 17 -77 17
-72 9 -65 104 7 100 14 182 20 232 3 19 7 58 10 85 36 305 131 702 247 1037
l30 87 37 -23 c20 -13 108 -59 196 -103z m2121 41 c95 -47 109 -58 225 -178
68 -71 125 -131 127 -135 4 -10 -353 0 -363 11 -11 11 -125 339 -125 359 0 10
5 8 136 -57z m2858 -26 c-10 -29 -19 -55 -19 -58 -8 -43 -53 -154 -65 -160 -9
-5 -86 -12 -171 -15 l-154 -7 65 68 c90 94 82 88 215 154 65 33 124 65 129 70
18 18 18 1 0 -52z m910 -531 c-4 -241 -20 -446 -50 -652 -21 -150 -22 -154
-39 -240 -8 -44 -15 -81 -15 -83 0 -2 -17 -1 -37 2 -21 3 -63 8 -93 11 -142
16 -285 41 -570 100 -8 2 -35 8 -60 15 -25 7 -52 14 -60 16 -57 13 -236 67
-241 72 -4 4 22 57 58 117 80 138 216 406 278 550 26 61 50 113 54 117 3 3 31
9 61 13 30 3 111 15 180 26 69 11 141 22 160 25 19 3 62 12 95 19 33 8 74 17
90 20 17 3 64 14 105 23 41 10 78 15 81 10 3 -5 4 -77 3 -161z m-4576 59 c239
-45 275 -51 397 -66 50 -7 99 -13 110 -15 11 -2 35 -4 53 -4 28 -1 35 -6 48
-36 67 -160 285 -575 356 -677 10 -14 18 -31 18 -36 0 -13 -232 -84 -415 -127
-152 -36 -421 -84 -555 -100 -30 -3 -67 -8 -82 -11 -15 -2 -29 0 -32 4 -5 9
-41 184 -50 247 -4 23 -8 51 -11 63 -2 12 -11 84 -20 159 -9 76 -18 152 -20
169 -8 58 -24 464 -19 475 2 4 47 -4 99 -17 53 -13 108 -25 123 -28z m2412 -1
c25 -4 61 -10 80 -14 l34 -7 -134 -97 c-74 -54 -149 -107 -166 -118 l-31 -19
-141 97 c-78 54 -139 99 -137 101 2 3 15 6 27 7 46 6 155 26 238 43 84 18 142
20 230 7z m1043 -75 c-12 -36 -158 -326 -198 -395 -25 -42 -45 -78 -45 -80 0
-2 -23 -40 -51 -84 -49 -77 -51 -80 -77 -70 -86 32 -309 133 -447 202 -155 78
-159 80 -136 95 58 39 265 198 350 269 l94 79 257 0 c226 -1 257 -2 253 -16z
m-1939 -52 c22 -21 251 -194 348 -263 l55 -39 -71 -39 c-219 -118 -560 -272
-577 -262 -35 22 -347 604 -330 614 5 3 132 7 282 8 260 1 273 0 293 -19z
m6844 -110 c16 -84 20 -111 32 -193 6 -38 13 -81 15 -95 2 -14 7 -47 9 -75 3
-27 8 -68 10 -90 35 -325 25 -886 -20 -1190 -23 -157 -42 -265 -60 -353 l-16
-73 -110 -65 c-365 -216 -757 -387 -1173 -509 -132 -39 -353 -93 -440 -109
-16 -2 -40 -7 -51 -10 -22 -5 -60 -11 -129 -21 -22 -3 -47 -8 -55 -10 -8 -2
-41 -7 -72 -10 l-57 -7 35 104 c73 216 126 413 173 648 22 107 43 215 46 240
4 25 9 52 10 60 2 8 6 44 10 80 4 36 8 72 10 80 2 8 6 51 10 95 4 44 9 94 11
110 6 47 17 331 17 431 l0 91 86 27 c47 15 95 31 106 36 11 4 65 25 120 45
208 77 539 228 703 321 252 144 435 262 637 414 66 49 123 89 126 90 3 0 11
-28 17 -62z m-12234 -71 c39 -29 95 -71 125 -92 64 -46 339 -225 346 -225 3 0
33 -17 68 -39 253 -155 685 -347 1028 -458 l149 -48 0 -80 c1 -105 8 -296 14
-365 3 -30 8 -86 11 -125 4 -38 18 -146 32 -240 33 -224 28 -195 51 -305 6
-25 15 -68 21 -96 15 -78 60 -251 82 -324 11 -36 22 -74 24 -84 3 -10 25 -79
50 -152 25 -73 45 -137 45 -141 0 -15 -296 29 -520 78 -519 113 -1064 326
-1512 592 l-47 28 -20 92 c-24 112 -32 152 -46 237 -4 25 -9 52 -10 60 -1 8
-6 40 -10 70 -4 30 -9 62 -10 70 -2 8 -6 49 -10 90 -4 41 -9 83 -11 93 -24
126 -23 706 1 942 2 22 7 65 10 95 3 30 7 66 10 80 2 14 7 48 10 75 5 43 18
125 30 190 2 11 4 23 4 28 2 14 15 7 85 -46z m6172 -348 c156 -91 513 -262
627 -302 23 -9 19 -15 -85 -148 -100 -129 -139 -175 -243 -293 -110 -125 -385
-396 -401 -396 -8 0 -103 89 -213 198 -189 188 -312 325 -431 477 -30 39 -57
72 -60 75 -10 9 -42 62 -38 64 2 1 39 17 83 35 117 50 455 220 565 284 52 31
98 57 101 57 3 0 46 -23 95 -51z m1005 -440 c288 -92 732 -189 984 -214 107
-11 117 -14 109 -38 -29 -98 -41 -137 -76 -247 -119 -370 -350 -867 -520
-1117 l-28 -42 -63 24 c-274 105 -635 292 -912 473 -100 65 -330 229 -364 259
-3 2 65 74 151 161 195 196 183 183 311 332 59 69 158 193 220 277 62 83 115
152 118 152 4 1 35 -8 70 -20z m-2058 -111 c159 -210 301 -372 510 -582 l209
-209 -26 -22 c-13 -12 -37 -30 -51 -41 -15 -10 -45 -33 -68 -50 -93 -68 -119
-87 -209 -147 -75 -51 -268 -168 -418 -253 -111 -63 -551 -264 -576 -264 -11
0 -37 39 -129 195 -99 167 -231 431 -310 621 -66 157 -205 556 -205 588 0 11
10 16 33 17 17 0 39 2 47 3 8 2 40 7 70 11 30 4 64 9 75 11 11 2 38 6 60 9 73
9 197 34 360 71 11 2 32 6 47 9 39 7 395 110 443 129 22 8 43 15 47 15 3 1 45
-50 91 -111z m5022 -131 c-3 -156 -16 -347 -30 -442 -3 -16 -7 -52 -10 -80 -3
-27 -7 -61 -10 -75 -2 -14 -7 -43 -10 -65 -24 -171 -98 -499 -152 -675 -15
-47 -28 -89 -29 -95 -10 -44 -106 -300 -115 -306 -14 -8 -91 -11 -314 -11
-274 -1 -582 22 -775 57 -14 2 -41 7 -60 9 -157 23 -593 126 -667 157 l-32 14
81 140 c205 356 367 727 487 1116 28 91 53 176 56 188 12 61 -8 57 268 57 226
0 374 6 492 19 22 2 85 9 140 15 55 6 111 13 125 15 45 6 114 17 141 21 45 7
323 64 353 72 68 19 65 25 61 -131z m-8013 63 c51 -10 104 -21 118 -23 14 -3
43 -8 65 -12 22 -4 49 -9 60 -11 11 -2 74 -11 140 -19 322 -42 441 -49 767
-48 l266 0 17 -61 c47 -171 163 -505 221 -634 13 -29 36 -80 50 -115 45 -107
189 -386 278 -537 l85 -145 -37 -13 c-34 -12 -266 -77 -309 -87 -96 -21 -255
-55 -283 -60 -19 -3 -46 -8 -60 -10 -46 -10 -65 -13 -120 -20 -30 -4 -64 -9
-74 -11 -11 -2 -44 -6 -75 -9 -31 -3 -69 -7 -86 -9 -138 -18 -279 -25 -505
-24 -107 0 -207 -1 -221 -1 -14 -1 -32 5 -41 11 -14 12 -94 221 -133 348 -72
241 -106 370 -140 548 -27 136 -60 349 -70 447 -4 33 -8 71 -10 85 -5 32 -18
263 -20 355 -2 74 1 89 15 80 5 -3 51 -14 102 -25z m11649 -81 c-120 -445
-339 -940 -600 -1354 -65 -103 -218 -326 -257 -374 -7 -9 -49 -62 -94 -118
-171 -217 -373 -427 -625 -654 -122 -108 -494 -393 -503 -384 -2 2 21 41 51
87 139 214 309 528 401 738 15 36 36 83 46 105 71 160 186 501 240 709 16 60
32 112 37 115 5 3 38 26 73 50 119 82 383 282 410 311 3 3 32 27 65 55 211
175 526 500 704 727 42 53 77 96 78 94 1 -1 -10 -49 -26 -107z m-15306 -133
c138 -166 467 -497 616 -621 197 -164 343 -274 520 -393 l107 -72 17 -72 c19
-77 135 -436 159 -491 7 -17 24 -59 36 -92 13 -33 26 -64 30 -70 4 -5 11 -21
15 -35 4 -13 23 -58 42 -100 132 -290 310 -609 459 -822 30 -43 54 -80 54 -83
0 -20 -526 366 -580 425 -3 3 -43 39 -90 80 -169 149 -355 344 -564 590 -53
63 -210 275 -277 375 -297 444 -527 936 -673 1437 l-44 153 31 -39 c18 -22 81
-98 142 -170z m7744 -810 c181 -135 495 -341 574 -377 12 -5 54 -28 92 -50 98
-55 349 -177 477 -230 59 -24 108 -49 108 -54 0 -6 -32 -53 -72 -105 -260
-345 -628 -713 -978 -979 -129 -98 -336 -241 -349 -241 -36 0 -456 309 -671
495 -47 40 -407 401 -445 445 -89 104 -188 224 -239 289 l-57 75 38 17 c21 10
85 39 143 64 388 173 799 417 1105 659 66 52 123 95 127 95 5 1 70 -46 147
-103z m5841 -542 c-22 -65 -44 -128 -49 -139 -5 -11 -24 -58 -41 -105 -178
-467 -471 -967 -809 -1380 -135 -164 -146 -174 -251 -220 -262 -115 -640 -248
-784 -276 -10 -2 -42 -10 -70 -18 -93 -27 -393 -86 -511 -101 -21 -2 -73 -9
-115 -14 -216 -28 -655 -49 -648 -31 2 4 57 64 123 132 335 345 612 718 851
1144 74 133 213 414 228 461 8 25 19 29 101 38 33 3 74 8 90 10 17 3 48 7 70
10 53 7 105 15 225 36 36 6 115 22 175 36 61 13 118 26 127 28 132 28 554 161
667 209 31 13 81 34 111 46 103 41 282 124 414 191 72 37 132 66 133 65 2 -1
-15 -56 -37 -122z m-11665 -99 c245 -113 645 -252 905 -315 47 -12 92 -23 100
-25 29 -7 265 -54 300 -60 19 -3 46 -7 60 -10 41 -7 103 -17 130 -20 46 -5
130 -15 183 -21 28 -4 65 -7 80 -7 24 -1 31 -7 45 -41 35 -84 191 -386 262
-506 88 -150 200 -323 289 -445 56 -78 245 -321 261 -335 3 -3 34 -39 70 -80
49 -56 231 -248 328 -345 6 -5 -389 3 -465 10 -35 3 -93 8 -130 11 -38 3 -79
7 -93 9 -14 2 -50 6 -80 10 -30 3 -66 8 -80 10 -24 4 -55 10 -125 21 -348 55
-801 187 -1145 334 -81 35 -86 39 -239 220 -398 469 -720 1031 -926 1616 l-44
124 117 -59 c64 -33 153 -76 197 -96z m7453 -194 c171 -58 607 -160 792 -186
117 -17 160 -23 230 -30 199 -22 335 -30 562 -30 126 0 228 -3 228 -7 0 -3
-33 -71 -74 -150 -264 -516 -597 -966 -1005 -1362 -124 -120 -121 -117 -180
-168 -38 -34 -60 -46 -75 -43 -11 3 -47 7 -78 10 -32 2 -68 7 -80 9 -13 3 -45
7 -73 10 -27 3 -59 8 -70 10 -11 2 -42 7 -70 11 -27 5 -52 9 -55 10 -5 1 -79
15 -120 22 -14 2 -41 8 -60 13 -19 5 -47 11 -61 14 -50 8 -265 67 -394 107
-255 80 -478 171 -742 301 -141 69 -187 98 -155 98 13 0 236 164 352 258 349
285 687 635 933 969 62 83 118 152 125 152 7 1 38 -8 70 -18z m-3437 -54 c167
-239 507 -614 769 -848 164 -145 403 -333 547 -429 29 -19 51 -39 50 -44 -10
-32 -703 -343 -827 -371 -8 -2 -28 -8 -45 -15 -103 -40 -541 -152 -680 -174
-16 -2 -73 -11 -125 -20 -136 -22 -169 -26 -225 -32 l-51 -4 -124 113 c-262
239 -507 512 -702 783 -73 101 -208 302 -208 310 0 3 -13 24 -28 47 -53 78
-241 426 -242 448 0 3 57 6 128 6 124 1 343 10 432 18 25 2 76 6 115 10 38 3
81 8 95 10 14 2 45 7 70 10 283 37 658 120 915 204 50 16 92 29 95 30 3 0 21
-23 41 -52z m1804 -1577 c24 -18 338 -171 430 -210 55 -23 114 -48 130 -55
252 -112 823 -274 1130 -320 113 -17 116 -17 105 -30 -18 -22 -290 -199 -442
-288 -143 -83 -415 -221 -538 -272 -36 -15 -78 -33 -95 -40 -143 -64 -605
-213 -743 -240 -9 -1 -36 -8 -58 -14 -42 -11 -88 -5 -219 29 -22 6 -49 13 -60
15 -11 3 -58 16 -105 30 -47 14 -92 27 -101 29 -61 15 -371 130 -514 191 -147
63 -384 182 -523 264 -63 36 -123 71 -134 78 -74 41 -315 209 -310 215 4 4 25
10 47 13 72 11 288 56 390 81 486 121 988 323 1399 562 l70 40 65 -35 c36 -20
71 -39 76 -43z m4210 -436 c-16 -14 -88 -69 -160 -123 -449 -339 -930 -592
-1460 -770 -137 -46 -414 -125 -475 -136 -14 -2 -68 -13 -120 -24 -179 -37
-392 -70 -565 -86 -259 -24 -809 -25 -833 -1 -3 3 2 6 10 6 16 0 270 98 373
145 412 184 848 449 1182 718 l63 50 367 2 c203 1 393 5 423 8 30 3 87 9 125
13 39 3 77 8 85 9 8 2 42 6 75 9 61 7 219 32 265 41 14 3 41 8 60 11 73 12
380 86 490 119 63 18 117 34 120 34 3 0 -8 -11 -25 -25z m-8523 -64 c43 -12
85 -23 95 -25 10 -2 79 -17 153 -34 74 -16 155 -32 180 -36 24 -4 47 -8 50
-10 3 -1 32 -6 65 -10 32 -3 62 -8 65 -10 3 -2 34 -6 70 -10 36 -4 72 -8 80
-10 29 -5 243 -23 365 -30 161 -10 643 -3 685 10 8 2 66 -35 130 -86 167 -131
467 -332 620 -416 30 -16 73 -40 95 -53 171 -98 446 -225 677 -314 36 -14 70
-26 75 -26 5 0 17 -6 26 -12 15 -11 6 -14 -55 -17 -193 -10 -626 -2 -753 13
-16 2 -59 7 -95 11 -36 3 -76 8 -90 10 -14 2 -45 6 -70 10 -25 3 -56 8 -70 10
-14 3 -40 7 -57 10 -347 55 -823 191 -1115 318 -313 136 -504 234 -746 384
-167 102 -492 333 -492 349 0 3 8 3 18 0 9 -3 52 -15 94 -26z"/>
</g>
</svg>
