<svg id="Layer_1" data-name="Layer 1" xmlns="http://www.w3.org/2000/svg" viewBox="0 0 442.5 435"><defs><style>.cls-1{fill:#c15ba3;}</style></defs><title>Artboard 4</title><path class="cls-1" d="M416.67,282.4a130.59,130.59,0,0,0,.69-127.24,131.14,131.14,0,0,0-75-104.47,130.73,130.73,0,0,0-125.44-40,130.71,130.71,0,0,0-118.58,41A131.13,131.13,0,0,0,23.24,156.82a130.62,130.62,0,0,0,1.2,126.5,131.17,131.17,0,0,0,75.75,103.44,130.79,130.79,0,0,0,120.95,38.11,130.79,130.79,0,0,0,122.74-40A131.14,131.14,0,0,0,416.67,282.4Zm.86-17.83a130.06,130.06,0,0,0-9.16-45.6,130,130,0,0,0,9.72-45.85,123.79,123.79,0,0,1-.55,91.45ZM286.73,391h-1.18a131.38,131.38,0,0,0,29.58-42.58,129.86,129.86,0,0,0,50.63-15.63,123.82,123.82,0,0,1-26.15,46.34A123.09,123.09,0,0,1,286.73,391Zm-182.4-10.05a123.91,123.91,0,0,1-27.25-46.36,129.85,129.85,0,0,0,50.49,14.81,131.42,131.42,0,0,0,29.65,42.08c-1,0-1.93,0-2.89,0A123.12,123.12,0,0,1,104.34,380.95ZM30.5,267.67a123.36,123.36,0,0,1,6.1-38.39,131.64,131.64,0,0,0,30.57,39.38,131.26,131.26,0,0,0-1,50.9A124.79,124.79,0,0,1,31.23,281.1,124.67,124.67,0,0,1,30.5,267.67Zm-.42-108.74a124.76,124.76,0,0,1,35.84-40.32,131.13,131.13,0,0,0,1.78,51.1A131.58,131.58,0,0,0,36.42,211a123.29,123.29,0,0,1-6.87-40.67C29.55,166.49,29.74,162.69,30.08,158.93ZM152.25,46.51a131.25,131.25,0,0,0-28.06,42.42A129.84,129.84,0,0,0,76.55,103.7a123.81,123.81,0,0,1,26-46.29A123.09,123.09,0,0,1,152.25,46.51Zm185.81,9.92a123.79,123.79,0,0,1,25.77,46.07,129.84,129.84,0,0,0-48.63-14.58,131.36,131.36,0,0,0-29.36-42.36l1.46,0A123.12,123.12,0,0,1,338.06,56.43Zm73.08,112.95a123.3,123.3,0,0,1-6.81,40.49,131.6,131.6,0,0,0-31.71-41.32,131.11,131.11,0,0,0,1.8-51.31,124.78,124.78,0,0,1,36.13,40.07Q411.13,163.27,411.14,169.38ZM318.81,296.67a123.2,123.2,0,0,1-8.5,45.09c-2.51.15-5,.24-7.57.24a123.4,123.4,0,0,1-37.08-5.67,130.11,130.11,0,0,0,15.45-36.26c2.06.1,4.13.15,6.21.15a130.65,130.65,0,0,0,31.49-3.84C318.8,296.47,318.81,296.57,318.81,296.67ZM121.48,138.38a123.25,123.25,0,0,1,7.65-42.87q4.56-.34,9.2-.34a123.38,123.38,0,0,1,37.5,5.81,130.11,130.11,0,0,0-15.29,36c-2.06-.1-4.12-.15-6.21-.15A130.6,130.6,0,0,0,121.51,141C121.49,140.13,121.48,139.26,121.48,138.38Zm197.4,2a130.63,130.63,0,0,0-32.14-4q-3.5,0-7,.19a130.17,130.17,0,0,0-15.78-36,123.34,123.34,0,0,1,38.74-6.21c2.57,0,5.12.09,7.65.24a123.2,123.2,0,0,1,8.5,45.09C318.88,139.89,318.88,140.11,318.87,140.33ZM278.17,267.67a123.92,123.92,0,0,1-2.53,25,122.94,122.94,0,0,1-25.82-5.25,130.5,130.5,0,0,0,9.64-19,130,130,0,0,0,18.68-3.4C278.15,265.92,278.17,266.79,278.17,267.67ZM221,311.11a124.87,124.87,0,0,1-18.06-19.71,130.51,130.51,0,0,0,18.2-9.19A130.39,130.39,0,0,0,239,291,124.85,124.85,0,0,1,221,311.11Zm-58.1-43.95c0-.22,0-.44,0-.66a130.1,130.1,0,0,0,19.67,3.4A130.56,130.56,0,0,0,192.12,288a122.91,122.91,0,0,1-26.38,5.6A123.8,123.8,0,0,1,162.9,267.16Zm.58-97.78a123.89,123.89,0,0,1,2.54-25,123,123,0,0,1,25.4,5.12,130.61,130.61,0,0,0-8.83,16.92,130.08,130.08,0,0,0-19.09,3.25C163.48,169.58,163.48,169.48,163.48,169.38Zm56.59-43.33a124.9,124.9,0,0,1,18,19.66,130.43,130.43,0,0,0-18,8.89,130.37,130.37,0,0,0-17.88-8.7A124.88,124.88,0,0,1,220.06,126.05Zm25.8,126.54a122.85,122.85,0,0,1-22.58,7.66,122.8,122.8,0,0,1-28.73-8.92,124.45,124.45,0,0,1-15.07-21.11q-.58-6-.59-12.06a124.65,124.65,0,0,1,.68-13,124.51,124.51,0,0,1,14.85-20.44,122.84,122.84,0,0,1,26.71-9.08A122.8,122.8,0,0,1,245,183.39a124.57,124.57,0,0,1,16.46,22.18,124.68,124.68,0,0,1,.73,13.43c0,3.85-.19,7.65-.53,11.4A124.43,124.43,0,0,1,245.86,252.59Zm22.36-49.25q-.44-3.65-1.07-7.23,3.19,2.3,6.24,4.79-1,4-2.28,7.82Q269.73,206,268.23,203.34Zm-19.11-25.77q-2.29-2.41-4.7-4.7c1,0,1.93,0,2.89,0q3,0,6,.15,1.6,4,2.93,8.11Q252.73,179.23,249.12,177.57Zm-28-9.11q-3.66-.75-7.39-1.28,3.12-2.28,6.38-4.38,3.49,2.2,6.81,4.61Q224,167.88,221.14,168.46Zm-31,10.53q-3,1.46-5.88,3.06,1.39-4.56,3.12-9c2.51-.15,5-.24,7.57-.24h1.18Q193.06,175.82,190.16,179Zm-17.37,23.93q-1.55,2.75-3,5.57-1.1-3.3-2-6.69,2.82-2.37,5.79-4.58Q173.13,200.06,172.79,202.93Zm-.12,29.45q.38,3.49.94,6.92-3.24-2.31-6.33-4.83,1.08-4,2.42-7.8Q171.12,229.56,172.67,232.38Zm17.62,24.69q3,3.31,6.22,6.42l-1.46,0c-2.57,0-5.12-.09-7.65-.24q-1.78-4.53-3.2-9.22Q187.21,255.63,190.3,257.07Zm33.18,10.31q2.82.48,5.67.83-3.91,3-8.06,5.76-3.62-2.3-7.07-4.85Q218.8,268.42,223.48,267.38Zm26.65-9.06q3.41-1.59,6.71-3.36-1.06,3.5-2.32,6.91-4,.3-8.07.33Q248.32,260.3,250.12,258.33Zm18.35-25.81q1.48-2.72,2.83-5.52,1.4,4,2.53,8.15-3.1,2.56-6.36,4.91C267.87,237.56,268.21,235,268.47,232.51Zm6.82-14.69q2.25-5.77,4-11.79a125,125,0,0,1,11.45,12.18A124.93,124.93,0,0,1,279.64,230Q277.76,223.79,275.29,217.82Zm5.9-19.48a130.39,130.39,0,0,0,2.77-20,123.19,123.19,0,0,1,24.62,10.72,123.85,123.85,0,0,1-13.48,23.46A132,132,0,0,0,281.19,198.34Zm-6.11-5.05q-4.86-3.77-10.07-7.09a129.8,129.8,0,0,0-4-12.6,123,123,0,0,1,16,2.86A123.63,123.63,0,0,1,275.07,193.29Zm-17-27a130.66,130.66,0,0,0-9.1-17,122.92,122.92,0,0,1,25.42-5.28,123.78,123.78,0,0,1,2.83,25.34A130.18,130.18,0,0,0,258.06,166.28Zm-7.89-.41c-1,0-1.91,0-2.87,0q-5.26,0-10.42.41-4.84-3.95-10.05-7.43a123.34,123.34,0,0,1,15.35-7.19A123.8,123.8,0,0,1,250.17,165.87Zm-36.76-7q-5,3.41-9.71,7.27c-2.88-.19-5.79-.3-8.72-.3-1.51,0-3,0-4.5.09a123.76,123.76,0,0,1,7.71-14.06A123.3,123.3,0,0,1,213.41,158.86Zm-33.76,14.92a129.7,129.7,0,0,0-4.07,13.52q-5,3.26-9.6,7a123.5,123.5,0,0,1-2.28-17.42A123,123,0,0,1,179.66,173.78Zm-19.71,25.58a132,132,0,0,0-13.28,13.8,124,124,0,0,1-14-23.45,123.24,123.24,0,0,1,24.19-10.86A130.25,130.25,0,0,0,159.95,199.36Zm2,7.63q1.62,5.39,3.68,10.58-2.38,5.79-4.21,11.85a124.9,124.9,0,0,1-10.3-10.69A124.88,124.88,0,0,1,162,207Zm-2.58,30a130.18,130.18,0,0,0-3.15,20.29,123.23,123.23,0,0,1-22.5-10,123.82,123.82,0,0,1,13-22.85A132,132,0,0,0,159.42,237Zm6.06,5q4.88,3.77,10.11,7.08a129.69,129.69,0,0,0,4.06,13.5,123,123,0,0,1-16.5-3.22A123.47,123.47,0,0,1,165.48,242Zm25,28.45c1.52.05,3,.09,4.57.09,3,0,6-.11,9-.31q5,4.17,10.47,7.83a123.42,123.42,0,0,1-15.61,7.5A123.8,123.8,0,0,1,190.48,270.41Zm37.27,7.5a131.71,131.71,0,0,0,11.39-8.85c2,.1,4.1.15,6.17.15s4.2-.05,6.28-.15A123.65,123.65,0,0,1,243,285,123.29,123.29,0,0,1,227.74,277.92Zm34.49-16.86q1.86-5.48,3.24-11.17,5.25-3.37,10.16-7.22a123.47,123.47,0,0,1,2.15,15.21A122.86,122.86,0,0,1,262.23,261.05Zm19.45-23.43a132,132,0,0,0,13.41-13.74,123.9,123.9,0,0,1,12.57,21.46,123.27,123.27,0,0,1-23,10.48A130.16,130.16,0,0,0,281.68,237.62Zm17.93-19.4a131,131,0,0,0,15-25.45,124.81,124.81,0,0,1,26.85,23.56,124.84,124.84,0,0,1-27.82,25.28A131,131,0,0,0,299.61,218.22Zm17.71-32a129.85,129.85,0,0,0,8.19-36.64,123.74,123.74,0,0,1,39.24,21.52,123.41,123.41,0,0,1-18.95,39.57A131.84,131.84,0,0,0,317.33,186.19Zm-6.1-3.65a130.07,130.07,0,0,0-27-11.41c0-.27,0-.54,0-.81a130.88,130.88,0,0,0-2.78-26.88c1.76-.07,3.52-.12,5.3-.12a123.57,123.57,0,0,1,31.89,4.17A123,123,0,0,1,311.23,182.55Zm-38.55-45.46a129.83,129.83,0,0,0-27.77,6.1,131.92,131.92,0,0,0-19.45-21.71,123.91,123.91,0,0,1,31.8-18.5A123.27,123.27,0,0,1,272.68,137.09ZM220,116.88A130.91,130.91,0,0,0,186.6,97.4a124.84,124.84,0,0,1,33-31.65,124.84,124.84,0,0,1,33.56,31.35A131,131,0,0,0,220,116.88Zm-5.39,4.65a131.91,131.91,0,0,0-19.23,21.92,129.85,129.85,0,0,0-27.76-5.94,123.21,123.21,0,0,1,15-34.15A123.83,123.83,0,0,1,214.63,121.53Zm-60.3,22.31c1.55,0,3.1,0,4.64.1a130.94,130.94,0,0,0-2.49,25.45c0,.74,0,1.49,0,2.23a130.17,130.17,0,0,0-26.63,11.6,122.92,122.92,0,0,1-8-35A123.55,123.55,0,0,1,154.33,143.83Zm-30.51,43.09a131.88,131.88,0,0,0-28.89,25.53,123.43,123.43,0,0,1-19.37-40.27,123.79,123.79,0,0,1,39.46-22A129.81,129.81,0,0,0,123.82,186.93Zm2.83,6.52a131.06,131.06,0,0,0,15.56,25.39,130.92,130.92,0,0,0-14.46,24.73,124.85,124.85,0,0,1-28.44-25.44A124.85,124.85,0,0,1,126.65,193.44ZM125,250.14a129.91,129.91,0,0,0-8.3,38.49A123.71,123.71,0,0,1,75,266.1a123.39,123.39,0,0,1,20-42.32A131.87,131.87,0,0,0,125,250.14Zm6.1,3.65a130.11,130.11,0,0,0,24.8,10.74c0,.88,0,1.76,0,2.64A130.89,130.89,0,0,0,158.68,294c-1.76.07-3.52.12-5.3.12a123.67,123.67,0,0,1-29.76-3.62A123,123,0,0,1,131.13,253.79Zm22.25,47.38q3.5,0,7-.19a130.18,130.18,0,0,0,15.77,36,123.37,123.37,0,0,1-37.77,5.9q-3,0-6-.15a123.14,123.14,0,0,1-8.86-45A130.73,130.73,0,0,0,153.38,301.17Zm14.06-.76A129.8,129.8,0,0,0,196.16,294a131.93,131.93,0,0,0,19.45,21.71,123.86,123.86,0,0,1-32.73,18.86A123.29,123.29,0,0,1,167.44,300.41Zm53.61,19.88a130.9,130.9,0,0,0,33.79,19.63,124.83,124.83,0,0,1-33.9,32.1,124.82,124.82,0,0,1-34-31.57A131,131,0,0,0,221.05,320.29Zm5.38-4.65a131.89,131.89,0,0,0,19.4-22.16A129.87,129.87,0,0,0,274,299.54,123.23,123.23,0,0,1,258.88,334,123.83,123.83,0,0,1,226.44,315.64Zm60.87-22.42c-1.55,0-3.1,0-4.64-.1a130.94,130.94,0,0,0,2.49-25.45c0-1.55,0-3.1-.09-4.64a130.2,130.2,0,0,0,25.33-11.19,123,123,0,0,1,8.17,37.37A123.61,123.61,0,0,1,287.31,293.21Zm29.15-45.09a131.88,131.88,0,0,0,29.48-26.23,123.49,123.49,0,0,1,20.88,42.34,123.77,123.77,0,0,1-41.36,23A129.88,129.88,0,0,0,316.46,248.12Zm33.94-31.91a130.52,130.52,0,0,0,20.18-40.09,124.38,124.38,0,0,1,30.2,42.8,124.37,124.37,0,0,1-28.16,40.13A130.6,130.6,0,0,0,350.41,216.21Zm18.74-77.83a123.92,123.92,0,0,1-2.58,25.2,130.61,130.61,0,0,0-40.71-21.28c0-.88,0-1.76,0-2.64a130.23,130.23,0,0,0-7.75-44.38,123,123,0,0,1,48.16,16.64A123.82,123.82,0,0,1,369.14,138.38Zm-61.84-51c-1.52-.05-3-.09-4.57-.09A130.27,130.27,0,0,0,260,94.52,131.92,131.92,0,0,0,226.22,61.7,122.93,122.93,0,0,1,276,46.06,124.53,124.53,0,0,1,307.3,87.42ZM219.54,57.5a129.89,129.89,0,0,0-50-17,123.43,123.43,0,0,1,47.53-22.7,123.24,123.24,0,0,1,51.28,22.13A129.94,129.94,0,0,0,219.54,57.5Zm-6.59,4.3A131.91,131.91,0,0,0,179.8,94.91a130.31,130.31,0,0,0-41.47-6.74q-3.16,0-6.28.15a124.43,124.43,0,0,1,30-41.51A122.93,122.93,0,0,1,212.95,61.8ZM121.41,96.33a130.3,130.3,0,0,0-6.93,42.05c0,1.55,0,3.1.09,4.64a130.65,130.65,0,0,0-40.82,21.64,124.23,124.23,0,0,1,.33-51.49A123,123,0,0,1,121.41,96.33Zm-51.66,81a130.53,130.53,0,0,0,20.67,40.8A130.49,130.49,0,0,0,69.09,261,124.39,124.39,0,0,1,40,220.1,124.33,124.33,0,0,1,69.75,177.31Zm1.4,119.35a124,124,0,0,1,2.14-23,130.56,130.56,0,0,0,43.2,22.15c0,.27,0,.54,0,.81a130.21,130.21,0,0,0,8.13,45.4,123,123,0,0,1-50.18-17A123.73,123.73,0,0,1,71.14,296.67Zm64.32,53.13c1,0,1.91,0,2.87,0A130.31,130.31,0,0,0,180.16,343a131.91,131.91,0,0,0,34.07,33A122.91,122.91,0,0,1,167,390.86,124.55,124.55,0,0,1,135.47,349.8ZM221,380.22a129.9,129.9,0,0,0,47,16.42,123.3,123.3,0,0,1-46.81,21.07,123.29,123.29,0,0,1-46.44-20.8A129.92,129.92,0,0,0,221,380.22Zm6.7-4.25a131.91,131.91,0,0,0,34-33.58A130.3,130.3,0,0,0,302.73,349c1.51,0,3,0,4.5-.09a124.53,124.53,0,0,1-31.54,41.59A122.92,122.92,0,0,1,227.65,376ZM318.05,341a130.23,130.23,0,0,0,7.76-44.38c0-.74,0-1.49,0-2.23a130.64,130.64,0,0,0,42.85-22.65,124.23,124.23,0,0,1-.36,51.39A123,123,0,0,1,318.05,341Zm56.62-74.36A131.6,131.6,0,0,0,404.23,228a123.33,123.33,0,0,1,6.34,39.12,124.79,124.79,0,0,1-.68,13,124.79,124.79,0,0,1-33.42,37.41,131.15,131.15,0,0,0-1.79-50.91Zm33-126.64a131.89,131.89,0,0,0-35.17-32.54,130.25,130.25,0,0,0-19.11-42.84A124.26,124.26,0,0,1,407.62,140ZM245.31,14.55a123.29,123.29,0,0,1,80.44,29.77,130.4,130.4,0,0,0-38.44-5.77c-3,0-6,.11-9,.31A130.74,130.74,0,0,0,234.76,15C238.24,14.71,241.76,14.55,245.31,14.55ZM195,15.83c1.42,0,2.83,0,4.23.08a131,131,0,0,0-39.73,23.74c-2-.1-4.1-.15-6.17-.15A130.41,130.41,0,0,0,115,45.24,123.28,123.28,0,0,1,195,15.83ZM87.17,65.73a130.25,130.25,0,0,0-19.26,43,131.89,131.89,0,0,0-35,32.82A124.25,124.25,0,0,1,87.17,65.73ZM22.64,174.86a130,130,0,0,0,9.79,45.31,130.09,130.09,0,0,0-8.9,45.23,123.76,123.76,0,0,1-.89-90.54Zm11.7,123.42a131.89,131.89,0,0,0,34,31.19,130.35,130.35,0,0,0,20,42.94A124.28,124.28,0,0,1,34.33,298.28ZM195,420.5a123.23,123.23,0,0,1-77.44-27.28,130.44,130.44,0,0,0,36.8,5.28q5.26,0,10.42-.41a130.8,130.8,0,0,0,39.36,22.08Q199.58,420.49,195,420.5Zm52.33,0q-4.61,0-9.14-.34A130.82,130.82,0,0,0,278,397.7c2.88.19,5.79.3,8.72.3a130.34,130.34,0,0,0,39.73-6.17A123.27,123.27,0,0,1,247.31,420.5Zm108.26-50.45a130.23,130.23,0,0,0,18.89-42.52,131.9,131.9,0,0,0,32.4-30.24A124.24,124.24,0,0,1,355.57,370.05Z"/></svg>
